<?xml version="1.0" standalone="no"?>
<!DOCTYPE svg PUBLIC "-//W3C//DTD SVG 20010904//EN"
 "http://www.w3.org/TR/2001/REC-SVG-20010904/DTD/svg10.dtd">
<svg version="1.0" xmlns="http://www.w3.org/2000/svg"
 width="795.000000pt" height="638.000000pt" viewBox="0 0 795.000000 638.000000"
 preserveAspectRatio="xMidYMid meet">

<g transform="translate(0.000000,638.000000) scale(0.100000,-0.100000)"
fill="#000000" stroke="none">
<path d="M0 3185 l0 -3185 3975 0 3975 0 0 3185 0 3185 -3975 0 -3975 0 0
-3185z m4549 1881 c8 -10 10 -338 9 -1227 l-3 -1214 -547 -3 -548 -2 0 1224
c0 970 3 1225 13 1229 6 3 249 6 538 6 432 1 529 -1 538 -13z m-2365 -3488
c16 -26 -7 -47 -34 -30 -11 6 -43 12 -70 12 l-51 0 3 -32 3 -33 65 -3 c75 -3
90 -15 90 -75 0 -70 -10 -77 -105 -77 -75 0 -85 2 -96 21 -16 30 3 47 34 30
13 -7 45 -11 73 -9 47 3 49 4 49 33 0 30 0 30 -65 33 -35 2 -70 8 -77 14 -17
14 -17 110 -1 126 20 20 168 12 182 -10z m766 3 c5 -11 10 -61 10 -111 0 -128
-1 -130 -108 -130 -48 0 -94 5 -102 10 -12 7 -15 32 -15 112 0 57 3 111 7 121
6 14 21 17 102 17 84 0 97 -2 106 -19z m418 -13 c3 -23 -1 -28 -17 -28 -12 0
-21 5 -21 10 0 6 -28 10 -65 10 l-66 0 3 -87 3 -88 60 0 c58 0 60 1 63 27 3
24 -1 27 -30 30 -21 2 -33 8 -33 18 0 11 14 16 53 18 l52 3 0 -58 c0 -33 -5
-64 -12 -71 -16 -16 -170 -16 -186 0 -17 17 -16 220 0 236 9 9 41 12 103 10
90 -3 90 -3 93 -30z m1882 12 c0 -18 -7 -20 -70 -20 l-70 0 0 -35 0 -35 60 0
c53 0 60 -2 60 -20 0 -18 -7 -20 -60 -20 l-60 0 0 -35 0 -35 70 0 c64 0 70 -2
70 -20 0 -20 -5 -21 -92 -18 l-93 3 -3 114 c-1 63 0 121 2 128 4 9 30 13 96
13 83 0 90 -1 90 -20z m384 -2 c22 -31 20 -90 -4 -121 -20 -25 -20 -27 -4 -67
29 -72 -13 -68 -48 5 -19 39 -26 45 -54 45 -36 0 -44 -13 -44 -67 0 -27 -4
-34 -17 -31 -16 3 -18 18 -21 118 -1 62 0 120 2 127 4 9 29 13 90 13 76 0 86
-2 100 -22z m396 2 c0 -17 -8 -19 -72 -22 l-73 -3 0 -30 c0 -30 0 -30 63 -33
53 -3 63 -6 60 -20 -2 -13 -17 -18 -63 -22 -59 -5 -60 -6 -60 -35 l0 -30 73
-3 c63 -2 73 -5 70 -20 -3 -15 -16 -17 -93 -17 l-90 0 -3 128 -3 127 96 0 c88
0 95 -2 95 -20z m-3602 -98 l3 -102 65 0 c57 0 65 -2 62 -17 -3 -15 -16 -18
-86 -21 l-82 -3 0 126 c0 115 2 126 18 123 15 -3 17 -17 20 -106z m1308 -10
c24 -63 44 -118 44 -123 0 -21 -31 -7 -45 21 -14 28 -20 30 -69 30 -51 0 -55
-2 -65 -30 -10 -30 -41 -42 -41 -17 0 12 74 210 86 229 3 5 15 8 26 6 15 -2
30 -30 64 -116z m340 31 l69 -88 3 88 c3 79 5 87 22 87 19 0 20 -7 20 -125 0
-117 -1 -125 -19 -125 -13 0 -44 30 -87 86 -77 98 -84 97 -84 -14 0 -65 -2
-73 -17 -70 -16 3 -18 18 -21 112 -1 61 0 116 2 123 12 31 45 10 112 -74z
m606 40 l3 -48 67 -3 67 -3 3 48 c2 36 7 49 21 51 15 3 17 -8 17 -123 0 -115
-2 -126 -17 -123 -14 2 -19 15 -21 56 l-3 53 -67 -3 -67 -3 -3 -53 c-3 -44 -6
-53 -20 -50 -15 3 -17 20 -20 126 -2 116 -2 122 17 122 17 0 20 -8 23 -47z"/>
<path d="M3520 3850 l0 -1170 90 0 90 0 2 647 3 647 25 6 25 6 3 166 2 167 38
3 37 3 3 113 3 112 34 0 c31 0 34 3 37 33 3 29 7 32 38 35 42 4 50 15 50 67 0
22 3 65 7 95 6 49 8 52 14 25 4 -16 7 -55 8 -85 2 -87 8 -100 47 -100 31 0 33
-2 36 -37 3 -33 7 -38 30 -41 l27 -3 3 -117 3 -117 30 -10 c17 -5 33 -14 37
-20 4 -5 8 -80 8 -166 l0 -155 33 -15 32 -14 3 -622 2 -623 95 0 95 0 -2 1168
-3 1167 -492 3 -493 2 0 -1170z"/>
<path d="M4008 4353 l-3 -118 -30 -5 -30 -5 -3 -150 c-2 -90 2 -158 8 -170 7
-13 11 -228 13 -620 l2 -600 148 -3 147 -3 0 605 0 604 -35 12 -35 11 -2 167
-3 166 -32 8 -32 8 -3 103 -3 102 -52 3 -52 3 -3 -118z"/>
<path d="M2780 1470 l0 -90 65 0 65 0 0 90 0 90 -65 0 -65 0 0 -90z"/>
<path d="M5484 1536 c-11 -47 0 -57 58 -54 l53 3 0 35 0 35 -52 3 c-49 3 -53
1 -59 -22z"/>
<path d="M3646 1488 c-16 -41 -13 -48 25 -48 32 0 34 4 18 49 -14 40 -25 39
-43 -1z"/>
</g>
</svg>
