<?xml version="1.0" standalone="no"?>
<!DOCTYPE svg PUBLIC "-//W3C//DTD SVG 20010904//EN"
 "http://www.w3.org/TR/2001/REC-SVG-20010904/DTD/svg10.dtd">
<svg version="1.0" xmlns="http://www.w3.org/2000/svg"
 width="794.000000pt" height="623.000000pt" viewBox="0 0 794.000000 623.000000"
 preserveAspectRatio="xMidYMid meet">

<g transform="translate(0.000000,623.000000) scale(0.100000,-0.100000)"
fill="#000000" stroke="none">
<path d="M0 3115 l0 -3115 3970 0 3970 0 0 3115 0 3115 -3970 0 -3970 0 0
-3115z m4995 180 l0 -2270 -1017 -3 -1018 -2 0 2275 0 2275 1018 -2 1017 -3 0
-2270z"/>
<path d="M3072 3298 l3 -2173 168 -3 167 -2 0 1197 c0 659 4 1203 8 1210 4 6
25 13 47 15 l40 3 3 305 c2 228 5 306 15 312 6 4 33 8 59 8 83 0 78 -12 78
209 0 140 3 200 12 209 7 7 38 12 70 12 l57 0 3 63 3 62 75 5 75 5 17 218 c9
120 19 221 22 224 3 4 6 -5 6 -18 0 -13 7 -103 15 -199 8 -96 15 -187 15 -202
0 -27 1 -27 73 -30 l72 -3 3 -72 3 -72 52 -3 52 -3 5 -220 5 -219 62 -19 63
-19 2 -306 3 -307 60 -21 60 -21 3 -1162 2 -1161 180 0 180 0 0 2175 0 2175
-920 0 -920 0 2 -2172z"/>
<path d="M4050 4451 l-75 -6 -3 -227 -2 -228 -54 0 c-40 0 -55 -4 -60 -16 -3
-9 -6 -139 -6 -290 l0 -274 25 -12 25 -11 0 -1134 0 -1133 273 2 272 3 3 1100
c1 605 0 1110 -3 1122 -4 15 -20 26 -57 39 -29 9 -59 21 -65 26 -10 8 -13 87
-15 311 l-3 301 -62 20 -63 20 -2 195 -3 196 -25 1 c-14 0 -59 -2 -100 -5z"/>
</g>
</svg>
